<svg id="Layer_1" data-name="Layer 1" xmlns="http://www.w3.org/2000/svg" viewBox="0 0 977 302"><defs><style>.cls-1{fill:#fff;}.cls-2{fill:#d9d33b;}.cls-3{fill:#d3cb19;}.cls-4{fill:#fefefd;}.cls-5{fill:#333232;}.cls-6{fill:#0f0e0e;}.cls-7{fill:#2c2c2c;}.cls-8{fill:#343332;}.cls-9{fill:#0a0a07;}.cls-10{fill:#1c1a0f;}.cls-11{fill:#2f2f2c;}.cls-12{fill:#35342d;}.cls-13{fill:#d8d23b;}.cls-14{fill:#d7d13b;}</style></defs><path class="cls-1" d="M621.26,148.91c0-16.43-.16-32.87,0-49.3.14-10.74,6.13-16.24,16.28-15.57,7.18.47,12.31,5.07,12.6,12.28.45,10.94.53,21.9.38,32.84-.06,4,1.17,5,5,4.91,14.64-.22,29.29-.25,43.93,0,4.12.07,4.93-1.32,4.85-5-.24-10-.21-19.92-.05-29.88.17-10.35,6.54-16,16.71-15.07,6.62.6,11,4.65,12.11,11.21a21.3,21.3,0,0,1,.38,3.46c0,33.53.1,67.07,0,100.6,0,9.1-4.68,14.29-12.6,15.21-9.86,1.13-16.42-4.76-16.56-15.18-.15-11.13-.19-22.25,0-33.37.09-3.74-1-4.81-4.74-4.76q-22.2.3-44.43,0c-4-.06-4.66,1.39-4.63,4.92.11,11.44.15,22.91-.3,34.34-.36,9.27-5.84,14.23-14.55,14.14s-14.15-5.21-14.32-14.44c-.3-17.1-.09-34.2-.09-51.3Z"/><path class="cls-1" d="M828.61,168.2c5.19-14.46,10.21-28.84,15.54-43.1,2.38-6.36,6.69-8.88,13.1-8.65a14,14,0,0,1,13.08,9.79,16.6,16.6,0,0,1-.06,9.32c-1.94,7.76-5.38,15-8.3,22.37-5.9,15-11.93,29.85-17.86,44.8-2.8,7.07-7.34,11.79-15.46,11.92s-12.88-4.54-15.7-11.57q-12.21-30.69-24.38-61.46a36.62,36.62,0,0,1-2.42-9.1c-.88-7.62,3.41-13.93,10.16-15.59,8-2,13.87,1.08,16.82,9.17,4.42,12.15,8.55,24.4,12.88,36.58C826.65,164.51,826.81,166.62,828.61,168.2Z"/><path class="cls-1" d="M355.07,214.69c-10.27-.17-20.2-1.76-29.08-7.35-3.73-2.34-6.27-5.43-5.67-10.23.57-4.58,4-7.11,8.49-5.82a26.3,26.3,0,0,1,5.79,2.82,46.2,46.2,0,0,0,22.23,6.6,24.23,24.23,0,0,0,24.69-28.15c-1.33-8-6.91-12.72-13.91-15.68-7.64-3.23-15.53-5.87-23.28-8.83-15.78-6-23.31-16.17-22.67-31.34.47-11.38,6.49-19.79,16.07-25.38,14.75-8.77,30-8.31,45.28-1.11a16.94,16.94,0,0,1,4.8,3.5c2.74,2.86,3.92,6.31,1.58,9.93s-5.72,4.23-9.6,2.5c-4.4-2-8.74-4.05-13.2-5.85-11.11-4.5-23.1.31-26.94,10.7-2.9,7.82-1.11,13.81,5.62,18.79,4.61,3.41,10,5.26,15.25,7.22,6.08,2.24,12.15,4.48,18.15,6.92,29,11.73,24,48.43,6.67,61.16A47.48,47.48,0,0,1,355.07,214.69Z"/><path class="cls-1" d="M448.73,214.46c-21.28.2-36.74-12-41.5-34.17-4.22-19.79-1.11-38.46,13.91-53.46,13.82-13.8,38-10.88,48.56-4.75,4.23,2.44,5.74,6.51,4.16,10s-5.16,4.38-10.32,2.75c-6.14-1.94-12.1-4.52-18.91-3.3-7,1.26-12.51,4.6-16.12,10.59-9,15-9.41,30.56-1.33,46,6,11.4,18.71,15.53,30.79,10.79,1.7-.67,3.36-1.43,5-2.13,3.35-1.41,6.77-2.46,9.52,1,2.24,2.77,1.13,8.5-2,11.3-2.95,2.66-6.67,3.64-10.39,4.53a32,32,0,0,1-5.42.85C452.73,214.57,450.73,214.46,448.73,214.46Z"/><path class="cls-1" d="M746.09,165.12V131.78c0-9.38,5.43-15.28,13.92-15.35s14.1,5.9,14.14,15.18q.17,33.82,0,67.67c-.06,9.72-5.77,15.59-14.44,15.37-8.3-.21-13.59-6.28-13.61-15.7C746.07,187.67,746.09,176.39,746.09,165.12Z"/><path class="cls-1" d="M589.11,144.73V84c0-6.64,4.12-9.58,10.54-7.86a5.86,5.86,0,0,1,4.74,5.12,30.25,30.25,0,0,1,.3,4.45V204.19c0,7.21-1.76,9.9-6.57,10.42-5.4.59-9-2.69-9-8.64-.08-15.93,0-31.86,0-47.8Z"/><path class="cls-1" d="M759.79,108.2a16.54,16.54,0,0,1-16.52-16.57v-.3c.11-9.44,8-17.21,17.2-16.94a16.71,16.71,0,0,1,16.4,17c0,.19,0,.38,0,.57a16.33,16.33,0,0,1-16.42,16.26Z"/><path class="cls-1" d="M914.17,174.75c8.15.16,16.3.06,24.45,0s16.3.13,24.45,0c7.46-.16,11.14-3.32,11.69-9.56a46,46,0,0,0-55.49-49.57c-19.49,4.14-31.77,16.59-36.63,35.32-5.19,20-1.46,38.5,14.05,53.51,19.71,19.09,56.32,12.51,70.91.77a16,16,0,0,0,4.36-5.37c2.57-5.14,2-11-1.6-14.87s-8-4.46-13.72-2.1c-3.37,1.38-6.66,3-10,4.42a33.79,33.79,0,0,1-23.91,1.52c-5.33-1.65-9.35-4.8-11.3-10.32C910.46,175.63,911.06,174.7,914.17,174.75Zm-2.85-22.57a18.16,18.16,0,0,1,34.94-.41c1,3.16-.18,3.77-3,3.69-4.83-.12-9.66,0-14.49,0-5,0-10-.08-15,0C911.24,155.49,910.66,154.65,911.32,152.18Z"/><path class="cls-1" d="M568.1,126.33c0-6.31-2.27-9.16-7.18-9.25-4.71-.08-7.44,3.15-7.61,9,0,.94-.1,1.88-.15,2.73-1.12.35-1.46-.36-1.89-.8-20.47-20.72-47.89-8.35-58.18,7.16-12.43,18.72-10.13,51,5,67.44,14.69,16,38.44,16,53.12.14.49-.53.81-1.52,2.07-.78v2.87c.06,6.93,2.34,9.87,7.63,9.83,5.09,0,7.14-2.79,7.15-9.69V153.22C568.1,144.24,568.13,135.33,568.1,126.33Zm-18.89,59.6C545.09,195.05,538,200.07,528,200.7c-9.65.6-17.06-3.6-21.32-11.87-8.33-16.18-8.26-32.73,1.62-48.19,8.75-13.71,28.92-12.95,38.34.79,5.13,7.43,6.13,15.9,6.25,24.61-.07,6.84-.8,13.57-3.64,19.88Z"/><path class="cls-2" d="M7.05,226.14c-3.65-5-5-10.7-5-16.8q0-57.75,0-115.5c0-13.13,5.53-23,16.83-29.56q44.4-25.71,88.94-51.23c6.32-3.62,12.28-8,19.5-9.85A32,32,0,0,1,151.8,6.64q50.34,28.92,100.59,58a29.15,29.15,0,0,1,12,12.25c-2.65,3.29-5.74,5.75-10.31,5.4-9.74-9.34-22.06-14.7-33.5-21.39-23.25-13.59-46.78-26.7-69.91-40.49-10.79-6.44-20.33-6.24-31.18.23C90.11,38.14,60.28,55,30.56,72c-2,1.15-4.06,2.29-6,3.54C18,79.68,14.45,85.7,14.43,93.36c-.14,38.18-.07,76.35-.08,114.52,0,4.07,2.12,7.67,2.27,11.67C14.34,223.05,10.56,224.39,7.05,226.14Z"/><path class="cls-3" d="M254.7,81.73c3.76-.6,6.28-3.66,9.73-4.87a28.72,28.72,0,0,1,4.28,15.6c0,39,.09,78,0,117,0,11.62-5.12,21.09-15.14,27q-51.17,30-102.74,59.22c-10.23,5.8-21.23,5.52-31.49-.32q-50.87-29-101.5-58.39a26.54,26.54,0,0,1-10.74-10.8c2.09-3.4,5.81-4.32,9.06-6,4.24,1.61,6.91,5.4,10.82,7.61C51,241.35,74.76,255.26,98.69,269c7.79,4.46,15.64,8.82,23.3,13.48,9,5.47,17.65,5.35,26.77,0q47.58-27.75,95.44-55c8-4.56,12.1-11.28,12.13-20.28.12-37.49.05-75,.06-112.46a29.17,29.17,0,0,0-1.46-8.29C254.49,84.91,253.46,83.37,254.7,81.73Z"/><path class="cls-4" d="M254.7,81.73c2.44,5.41,2.95,11.09,2.93,17q-.15,53.8,0,107.6c0,10.07-4,17.3-12.88,22.37q-47.87,27.26-95.44,55c-9.66,5.66-18.43,5.55-28.07-.09-31.4-18.38-63-36.41-94.57-54.52a32.58,32.58,0,0,1-10.55-8.89c-2.47-5.21-3-10.7-3-16.43q.16-54.51,0-109c0-9.49,3.87-16.4,12.2-21.18,32.86-18.82,65.62-37.83,98.45-56.7,7.48-4.3,15.23-4.45,22.77-.14q49.71,28.5,99.35,57.12A32.79,32.79,0,0,1,254.7,81.73Z"/><path class="cls-3" d="M251.56,84.76c2,2.88,2.19,6.14,2.19,9.51,0,37.68-.1,75.35,0,113,0,8.19-3.42,13.84-10.39,17.84-29.68,17-59.74,33.42-88.78,51.47-13.91,8.65-24.93,8.52-38.78-.11-28.74-17.9-58.54-34.11-87.9-51-3.16-1.82-6.45-3.52-8-7.16-.51-2.47,1.56-3,3-3.89,20.82-12,41.7-24,62.49-36.11,2-1.16,4-2.4,6.39-2.63a3.93,3.93,0,0,1,1.48.32c10.45,8.06,21.72,14.63,34.46,18.44,2.88.87,4.61,3,6.49,5.18,7,8,13.95,16,23.09,21.7a9.69,9.69,0,0,0,3.31,1.52c-3.22-11.58-3-23.21-3.43-34.8a121.25,121.25,0,0,1,.43-13.37c.44-5.93-2.14-9-7.14-11.6-6-3.13-12.34-5.75-17.66-10.08a2,2,0,0,1-.3-1.4c4.74-3.2,9.84-5.78,14.86-8.51a3.92,3.92,0,0,1,1.41-.08c2.48.67,4.3,2.64,6.82,3.57-1.17-1.71-2.58-3.09-3.22-5a2.41,2.41,0,0,1,.23-1.37c3.6-3.08,7.87-5.06,12.08-7.14a5.74,5.74,0,0,1,2.77.52c.91.35,1.79.81,2.7,1.17,5.78,2.23,6.54,1.81,7.76-4.31.54-1.59.5-3.33,1.17-4.89,4.48-5.17,10.95-7.3,16.61-10.61q25.08-14.68,50.38-29C247.8,85,249.35,83.27,251.56,84.76Z"/><path class="cls-2" d="M91.92,176.34C70.37,188.7,48.8,201,27.31,213.48c-2.52,1.46-5.76,2-7.36,4.83-2.41-2.8-3.05-6.18-3.05-9.71q0-57.54,0-115.07c0-7.27,3.24-12.73,9.52-16.35Q76.09,48.55,125.78,20c6.51-3.75,12.9-3.61,19.37.12q49.46,28.51,98.93,57c3.21,1.85,6,4.11,7.48,7.7C243.88,88,237,92.64,229.84,96.7c-15.73,8.86-31.36,17.91-47,26.9-1,.57-1.93,1.28-2.89,1.93a3.48,3.48,0,0,1-1.33-3.07c.17-11.32-2-22-9.11-31.15,5.33-6.81,19.06-6.22,23.62,1,.7,1.12,1.37,2.76,2.89,1.63s.16-2.31-.65-3.33c-1-1.24-2.75-1.94-2.75-3.88a2.39,2.39,0,0,1,.71-.67c1.83-1.12,5.13-1,4.53-4.29-.54-2.91-3.36-3.41-5.82-3.81-8-1.29-14.5,2.16-20.71,6.52a17,17,0,0,1-11.72,4c-9.68-.22-16.18,11.58-12.51,21.94,2.64,7.46,6.85,13.94,13.4,18.72,1.68,1.23,3.84,2.13,4.36,4.52a58.25,58.25,0,0,1-12.14,6.84c-2.58.25-3.82-1.78-5.28-3.25a112.73,112.73,0,0,0-63-32.8A38.5,38.5,0,0,0,76,104c-9.39.47-13.54,5.86-11.24,15a44.16,44.16,0,0,0,16.05,24.54,116.47,116.47,0,0,0,27.6,15.75c1.81.75,3.86,1.2,5,3.13a2.76,2.76,0,0,1-1.23,3.39c-3.75,2.12-7,5.34-11.66,5.57-9.9-4.7-17.25-12.49-24.72-20.08a78.13,78.13,0,0,0,13.44,20.2C90.42,172.87,92.47,173.9,91.92,176.34Z"/><path class="cls-5" d="M112.93,162.7c-11.6-5-23-10.27-33-18.2a46.78,46.78,0,0,1-16.58-25.32c-2.72-10.4,2.1-16.9,12.89-16.42,22.94,1,43.18,9.58,61,23.84,5.41,4.33,10.31,9.31,15.44,14,.06.31.1.61.14.92-.91,1.55-2.48,1.9-4.08,2.17h-.47l-.48,0c-7.31-2-13.29-6.59-19.86-10-10.67-5.59-21.65-10.1-33.69-11.52-3.19-.38-7.48-1.77-9.27,1.4-2,3.54,2.12,5.77,4.31,8,8,8.24,18.06,13.34,28.69,17.4.93.36,2.33,1,2.81.2,3.61-5.82,6.66-.78,9.86.42a3.45,3.45,0,0,1,2.09,2l.29.81c-.71,2.6-3.13,3.22-5.09,4.35-4.15,2.39-8.21,4.95-12.55,7A2.27,2.27,0,0,1,112.93,162.7Z"/><path class="cls-6" d="M115,163.18,133,152.39c7.88,4.24,15.69,8.6,23.66,12.64,2.93,1.49,2.15,3.82,2.12,6-.27,15.56-.77,31.12,2,46.54.43,2.41.93,4.8,1.51,7.75a42,42,0,0,1-16.86-11.81c-9.52-11.28-20.34-20.12-34.76-24.75-6.82-2.19-12.78-6.92-17.86-12.3.61-4.08,4.08-4.49,7.08-5.5,5.09.4,8.6,4.1,12.82,6.29a91.22,91.22,0,0,0,16.61,6.67,10.57,10.57,0,0,0,4.92.56c2-.37,4.09-.85,4.57-3.2s-1.36-3.19-2.87-4.21a14.16,14.16,0,0,0-4.86-2.5C124,173.11,120.34,166.94,115,163.18Z"/><path class="cls-2" d="M132.74,151.58,123,146.82c0,5-2.24,4.85-6,3.22-11.2-4.85-22.06-10.17-30.41-19.37-2-2.23-5.33-4.6-3.54-8,1.6-3.08,5.34-2.13,8.21-2a65.63,65.63,0,0,1,20.39,4.27c12.73,5,24.62,11.54,36.16,18.77C143,146.76,138.55,150.44,132.74,151.58Z"/><path class="cls-7" d="M169.94,90.73c8.08,8,9.56,18.21,9.88,28.83.06,2,.07,4,.1,6-.38,1.69.07,3.54-1,5.09a3.19,3.19,0,0,0-4.37-.71c-2.62,1.44-5.05,3.18-7.74,4.49l-2-.65C157.2,129,151,123,147.25,114.68c-2.52-5.66-3.36-11.43-1.14-17.37,2.58-6.92,8.82-11.06,15.93-9.76,4.21.78,5.6-3.06,8.67-3.89.84-.45,1.22.07,1.55.72.4,2.14-2,2.75-2.39,4.45A17.15,17.15,0,0,0,169.94,90.73Z"/><path class="cls-8" d="M100.17,171.28c-2.24,2-5.6,2.42-7.32,5.15l-.93-.09c-7.68-8.1-14.29-16.93-18.2-27.82C82.45,155.83,90,164.6,100,170.43a.54.54,0,0,1,.33.52Q100.26,171.28,100.17,171.28Z"/><path class="cls-9" d="M166.81,134.4c2.16-4.17,6.67-5.22,10.33-7.06,2.42-1.23,1,2.18,1.78,3.28-.5,7.54-1.51,8.2-8.6,5.45C169.12,135.6,168,135,166.81,134.4Z"/><path class="cls-10" d="M148.75,143.68a5.41,5.41,0,0,1,4.08-2.17,36.54,36.54,0,0,1,6.43,7.87A35.9,35.9,0,0,1,148.75,143.68Z"/><path class="cls-3" d="M100.17,171.28c-.08-.28-.15-.56-.21-.85,5-1.39,9.74-3.33,13-7.73l2,.48c2.94,1.91,7.82,1.3,8.29,6.56.05.63,2.19,1.16,3.41,1.58a44.22,44.22,0,0,1,10.79,5c1.92,1.33,3.88,2.91,3,5.68-.82,2.5-3,3.43-5.39,3.77-2.7.38-5.23-.35-7.8-1.09C117.4,181.83,109,176.23,100.17,171.28Z"/><path class="cls-11" d="M171.83,84.73l-1.12-1.07c6.31-4.9,13.11-8.36,21.44-6.94a20.62,20.62,0,0,1,4.69,1.54c2,.9,3.19,2.6,2.62,4.79-.9,3.44-3.73,3.81-6.73,3.64a1.68,1.68,0,0,1-2.07.24c-3.9-6.72-6.58-7.42-13.86-3.65C175.25,84.08,173.87,85.55,171.83,84.73Z"/><path class="cls-12" d="M190.79,86.71l1.94,0c1.64,1.37,3.35,2.67,4.92,4.12a2.9,2.9,0,0,1,.61,4,3.34,3.34,0,0,1-2.92,1.63c-1.65-.07-3.14-1-3.21-2.6-.28-5.49-4.45-5.72-8.16-5.87a35.3,35.3,0,0,0-14,2.74,1.69,1.69,0,0,1-1.12-1.65c5.45-4.16,11.79-4.83,18.34-4.63A4,4,0,0,1,190.79,86.71Z"/><path class="cls-13" d="M164.71,112.28c-.06,2.7-.06,4.91-2,6s-4.24.45-6.1-.86c-3.43-2.41-5.68-5.57-5.85-9.9-.12-3.24.88-6.07,4.16-7.2,3.46-1.2,5.65,1,7.37,3.63S164.34,109.83,164.71,112.28Z"/><path class="cls-14" d="M190.79,86.71c-7.69-2.6-14.76.59-22,2.37-.71-2.64,2.55-2.53,3-4.35,3.13-1.75,6-4,9.66-4.65C186.79,79.21,190.46,78.94,190.79,86.71Z"/></svg>